# xmcd
#
# Track frame offsets:
#	150
#	15428
#	29662
#	59258
#	95041
#
# Disc length: 1655 seconds
#
# Revision: 1
# Processed by: cddbd v1.5.2PL0 Copyright (c) Steve Scherf et al.
# Submitted via: EasyCDDAExtractor 2010.6.0.0
#
DISCID=3a067505
DTITLE=Lock 'n' Load - Blow Ya Mind
DYEAR=1999
DGENRE=Dance
TTITLE0=Blow Ya Mind (Club Caviar Video Edit)
TTITLE1=Blow Ya Mind (Club Caviar Radio Edit)
TTITLE2=Blow Ya Mind (Club Cavier Remix)
TTITLE3=Blow Ya Mind (SM Trax Remix)
TTITLE4=Blow Ya Mind (Original Mix)
EXTD=
EXTT0=Blow Ya Mind (Club Caviar Video Edit)
EXTT1=Blow Ya Mind (Club Caviar Radio Edit)
EXTT2=Blow Ya Mind (Club Cavier Remix)
EXTT3=Blow Ya Mind (SM Trax Remix)
EXTT4=Blow Ya Mind (Original Mix)
PLAYORDER=
